# xmcd CD database file
#
# Track frame offsets:
#	150
#	17996
#	33994
#	59324
#	78265
#	95246
#	115129
#
# Disc length: 1765 seconds
#
# Revision: 1
# Processed by: cddbd v1.5.1PL0 Copyright (c) Steve Scherf et al.
# Submitted via: CDex 1.50beta10
#
DISCID=5406e307
DTITLE=luminousorange - luminousorangesuperplastic
DYEAR=1999
DGENRE=Rock
TTITLE0=walkblind
TTITLE1=what you've done
TTITLE2=sugarplastic
TTITLE3=tearsofhoney
TTITLE4=chapter 22
TTITLE5=cottooontails
TTITLE6=puppy dog mail (fast)
EXTD=YEAR: 1999
EXTT0=
EXTT1=
EXTT2=
EXTT3=
EXTT4=
EXTT5=
EXTT6=
PLAYORDER=
